<svg xmlns="http://www.w3.org/2000/svg" width="404.0" height="270.0" viewBox="0 0 404.0 270.0"><defs><marker id="arrow" viewBox="0 0 10 10" refX="9" refY="5" markerWidth="8" markerHeight="8" orient="auto-start-reverse"><path d="M 0 0 L 10 5 L 0 10 z" fill="black"/></marker></defs><rect x="40.0" y="105.0" width="120" height="60" fill="none" stroke="black" stroke-width="1.5"/><text x="100.0" y="135.0" text-anchor="middle" dominant-baseline="middle" font-family="monospace" font-size="14">app</text><ellipse cx="324.0" cy="48.0" rx="40.0" ry="8" fill="none" stroke="black" stroke-width="1.5"/><line x1="284.0" y1="48.0" x2="284.0" y2="112.0" fill="none" stroke="black" stroke-width="1.5"/><line x1="364.0" y1="48.0" x2="364.0" y2="112.0" fill="none" stroke="black" stroke-width="1.5"/><path d="M 284.0 112.0 A 40.0 8 0 0 0 364.0 112.0" fill="none" stroke="black" stroke-width="1.5"/><text x="324.0" y="80.0" text-anchor="middle" dominant-baseline="middle" font-family="monospace" font-size="14">users</text><ellipse cx="324.0" cy="158.0" rx="40.0" ry="8" fill="none" stroke="black" stroke-width="1.5"/><line x1="284.0" y1="158.0" x2="284.0" y2="222.0" fill="none" stroke="black" stroke-width="1.5"/><line x1="364.0" y1="158.0" x2="364.0" y2="222.0" fill="none" stroke="black" stroke-width="1.5"/><path d="M 284.0 222.0 A 40.0 8 0 0 0 364.0 222.0" fill="none" stroke="black" stroke-width="1.5"/><text x="324.0" y="190.0" text-anchor="middle" dominant-baseline="middle" font-family="monospace" font-size="14">cache</text><line x1="160.0" y1="120.26785714285714" x2="284.0" y2="89.82142857142857" stroke="black" stroke-width="1.5" marker-end="url(#arrow)"/><rect x="200.0" y="97.04464285714286" width="44.0" height="16" fill="white" stroke="none"/><text x="222.0" y="105.04464285714286" text-anchor="middle" dominant-baseline="middle" font-family="monospace" font-size="12">query</text><line x1="160.0" y1="149.73214285714286" x2="284.0" y2="180.17857142857142" stroke="black" stroke-width="1.5" marker-end="url(#arrow)"/><rect x="203.6" y="156.95535714285714" width="36.8" height="16" fill="white" stroke="none"/><text x="222.0" y="164.95535714285714" text-anchor="middle" dominant-baseline="middle" font-family="monospace" font-size="12">read</text></svg>