<svg xmlns="http://www.w3.org/2000/svg" width="953.5999999999999" height="140.0" viewBox="0 0 953.5999999999999 140.0"><defs><marker id="arrow" viewBox="0 0 10 10" refX="9" refY="5" markerWidth="8" markerHeight="8" orient="auto-start-reverse"><path d="M 0 0 L 10 5 L 0 10 z" fill="black"/></marker></defs><rect x="40.0" y="40.0" width="120" height="60" fill="none" stroke="black" stroke-width="1.5"/><text x="100.0" y="70.0" text-anchor="middle" dominant-baseline="middle" font-family="monospace" font-size="14">a</text><rect x="298.4" y="40.0" width="120" height="60" fill="none" stroke="black" stroke-width="1.5"/><text x="358.4" y="70.0" text-anchor="middle" dominant-baseline="middle" font-family="monospace" font-size="14">b</text><rect x="549.5999999999999" y="40.0" width="120" height="60" fill="none" stroke="black" stroke-width="1.5"/><text x="609.5999999999999" y="70.0" text-anchor="middle" dominant-baseline="middle" font-family="monospace" font-size="14">c</text><rect x="793.5999999999999" y="40.0" width="120" height="60" fill="none" stroke="black" stroke-width="1.5"/><text x="853.5999999999999" y="70.0" text-anchor="middle" dominant-baseline="middle" font-family="monospace" font-size="14">d</text><line x1="160.0" y1="70.0" x2="298.4" y2="70.0" stroke="black" stroke-width="1.5" marker-end="url(#arrow)"/><rect x="200.0" y="62.0" width="58.4" height="16" fill="white" stroke="none"/><text x="229.2" y="70.0" text-anchor="middle" dominant-baseline="middle" font-family="monospace" font-size="12">default</text><line x1="418.4" y1="70.0" x2="549.5999999999999" y2="70.0" stroke="black" stroke-width="1.5" stroke-dasharray="6,4" marker-end="url(#arrow)"/><rect x="458.3999999999999" y="62.0" width="51.2" height="16" fill="white" stroke="none"/><text x="483.99999999999994" y="70.0" text-anchor="middle" dominant-baseline="middle" font-family="monospace" font-size="12">dashed</text><line x1="669.5999999999999" y1="70.0" x2="793.5999999999999" y2="70.0" stroke="black" stroke-width="3" marker-end="url(#arrow)"/><rect x="709.5999999999999" y="62.0" width="44.0" height="16" fill="white" stroke="none"/><text x="731.5999999999999" y="70.0" text-anchor="middle" dominant-baseline="middle" font-family="monospace" font-size="12">thick</text></svg>