<svg xmlns="http://www.w3.org/2000/svg" width="1320.0" height="140.0" viewBox="0 0 1320.0 140.0"><defs><marker id="arrow" viewBox="0 0 10 10" refX="9" refY="5" markerWidth="8" markerHeight="8" orient="auto-start-reverse"><path d="M 0 0 L 10 5 L 0 10 z" fill="black"/></marker></defs><line x1="104.0" y1="70.0" x2="184.0" y2="70.0" stroke="black" stroke-width="1.5" marker-end="url(#arrow)"/><line x1="304.0" y1="70.0" x2="384.0" y2="70.0" stroke="black" stroke-width="1.5" marker-end="url(#arrow)"/><line x1="504.0" y1="70.0" x2="584.0" y2="70.0" stroke="black" stroke-width="1.5" marker-end="url(#arrow)"/><line x1="704.0" y1="70.0" x2="784.0" y2="70.0" stroke="black" stroke-width="1.5" marker-end="url(#arrow)"/><line x1="904.0" y1="70.0" x2="984.0" y2="70.0" stroke="black" stroke-width="1.5" marker-end="url(#arrow)"/><line x1="1104.0" y1="70.0" x2="1184.0" y2="70.0" stroke="black" stroke-width="1.5" marker-end="url(#arrow)"/><text x="72.0" y="70.0" text-anchor="middle" dominant-baseline="middle" font-family="monospace" font-size="14">prompt</text><rect x="184.0" y="40.0" width="120" height="60" fill="none" stroke="black" stroke-width="1.5"/><text x="244.0" y="70.0" text-anchor="middle" dominant-baseline="middle" font-family="monospace" font-size="14">tokenizer</text><rect x="384.0" y="40.0" width="120" height="60" fill="none" stroke="black" stroke-width="1.5"/><text x="444.0" y="70.0" text-anchor="middle" dominant-baseline="middle" font-family="monospace" font-size="14">embeddings</text><rect x="614.0" y="10.0" width="120" height="60" fill="white" stroke="black" stroke-width="1.5"/><rect x="608.0" y="16.0" width="120" height="60" fill="white" stroke="black" stroke-width="1.5"/><rect x="602.0" y="22.0" width="120" height="60" fill="white" stroke="black" stroke-width="1.5"/><rect x="596.0" y="28.0" width="120" height="60" fill="white" stroke="black" stroke-width="1.5"/><rect x="590.0" y="34.0" width="120" height="60" fill="white" stroke="black" stroke-width="1.5"/><rect x="584.0" y="40.0" width="120" height="60" fill="white" stroke="black" stroke-width="1.5"/><text x="644.0" y="70.0" text-anchor="middle" dominant-baseline="middle" font-family="monospace" font-size="14">transformer</text><rect x="784.0" y="40.0" width="120" height="60" fill="none" stroke="black" stroke-width="1.5"/><text x="844.0" y="70.0" text-anchor="middle" dominant-baseline="middle" font-family="monospace" font-size="14">layer norm</text><rect x="984.0" y="40.0" width="120" height="60" fill="none" stroke="black" stroke-width="1.5"/><text x="1044.0" y="70.0" text-anchor="middle" dominant-baseline="middle" font-family="monospace" font-size="14">lm_head</text><text x="1232.0" y="70.0" text-anchor="middle" dominant-baseline="middle" font-family="monospace" font-size="14">next token</text></svg>