<svg xmlns="http://www.w3.org/2000/svg" width="1184.0" height="140.0" viewBox="0 0 1184.0 140.0"><defs><marker id="arrow" viewBox="0 0 10 10" refX="9" refY="5" markerWidth="8" markerHeight="8" orient="auto-start-reverse"><path d="M 0 0 L 10 5 L 0 10 z" fill="black"/></marker></defs><line x1="160.0" y1="70.0" x2="240.0" y2="70.0" stroke="black" stroke-width="1.5" marker-end="url(#arrow)"/><line x1="360.0" y1="70.0" x2="440.0" y2="70.0" stroke="black" stroke-width="1.5" marker-end="url(#arrow)"/><line x1="560.0" y1="70.0" x2="640.0" y2="70.0" stroke="black" stroke-width="1.5" marker-end="url(#arrow)"/><line x1="760.0" y1="70.0" x2="840.0" y2="70.0" stroke="black" stroke-width="1.5" marker-end="url(#arrow)"/><line x1="960.0" y1="70.0" x2="1040.0" y2="70.0" stroke="black" stroke-width="1.5" marker-end="url(#arrow)"/><text x="100.0" y="70.0" text-anchor="middle" dominant-baseline="middle" font-family="monospace" font-size="14">plain English</text><rect x="240.0" y="40.0" width="120" height="60" fill="none" stroke="black" stroke-width="1.5"/><text x="300.0" y="70.0" text-anchor="middle" dominant-baseline="middle" font-family="monospace" font-size="14">LLM</text><rect x="440.0" y="40.0" width="120" height="60" fill="none" stroke="black" stroke-width="1.5"/><text x="500.0" y="70.0" text-anchor="middle" dominant-baseline="middle" font-family="monospace" font-size="14">JSON spec</text><rect x="664.0" y="16.0" width="120" height="60" fill="white" stroke="black" stroke-width="1.5"/><rect x="658.0" y="22.0" width="120" height="60" fill="white" stroke="black" stroke-width="1.5"/><rect x="652.0" y="28.0" width="120" height="60" fill="white" stroke="black" stroke-width="1.5"/><rect x="646.0" y="34.0" width="120" height="60" fill="white" stroke="black" stroke-width="1.5"/><rect x="640.0" y="40.0" width="120" height="60" fill="white" stroke="black" stroke-width="1.5"/><text x="700.0" y="70.0" text-anchor="middle" dominant-baseline="middle" font-family="monospace" font-size="14">diagrammer</text><rect x="840.0" y="40.0" width="120" height="60" fill="none" stroke="black" stroke-width="1.5"/><text x="900.0" y="70.0" text-anchor="middle" dominant-baseline="middle" font-family="monospace" font-size="14">SVG</text><text x="1092.0" y="70.0" text-anchor="middle" dominant-baseline="middle" font-family="monospace" font-size="14">blog / docs</text></svg>