<svg xmlns="http://www.w3.org/2000/svg" width="530.0" height="290.0" viewBox="0 0 530.0 290.0"><rect x="0" y="0" width="530.0" height="290.0" fill="white"/><defs><marker id="arrow" viewBox="0 0 10 10" refX="9" refY="5" markerWidth="8" markerHeight="8" orient="auto-start-reverse"><path d="M 0 0 L 10 5 L 0 10 z" fill="black"/></marker></defs><line x1="160.0" y1="115.9090909090909" x2="242.50464732009502" y2="75.90683766298423" stroke="black" stroke-width="1.5" marker-end="url(#arrow)"/><line x1="160.0" y1="145.0" x2="240.0" y2="145.0" stroke="black" stroke-width="1.5" marker-end="url(#arrow)"/><line x1="160.0" y1="174.0909090909091" x2="242.50464732009502" y2="214.09316233701577" stroke="black" stroke-width="1.5" marker-end="url(#arrow)"/><line x1="287.495352679905" y1="75.90683766298423" x2="370.0" y2="115.9090909090909" stroke="black" stroke-width="1.5" marker-end="url(#arrow)"/><line x1="290.0" y1="145.0" x2="370.0" y2="145.0" stroke="black" stroke-width="1.5" marker-end="url(#arrow)"/><line x1="287.495352679905" y1="214.09316233701577" x2="370.0" y2="174.0909090909091" stroke="black" stroke-width="1.5" marker-end="url(#arrow)"/><rect x="40.0" y="115.0" width="120" height="60" fill="none" stroke="black" stroke-width="1.5"/><text x="100.0" y="145.0" text-anchor="middle" dominant-baseline="middle" font-family="monospace" font-size="14">input</text><circle cx="265.0" cy="65.0" r="25.0" fill="none" stroke="black" stroke-width="1.5"/><text x="265.0" y="65.0" text-anchor="middle" dominant-baseline="middle" font-family="monospace" font-size="14">h1</text><circle cx="265.0" cy="145.0" r="25.0" fill="none" stroke="black" stroke-width="1.5"/><text x="265.0" y="145.0" text-anchor="middle" dominant-baseline="middle" font-family="monospace" font-size="14">h2</text><circle cx="265.0" cy="225.0" r="25.0" fill="none" stroke="black" stroke-width="1.5"/><text x="265.0" y="225.0" text-anchor="middle" dominant-baseline="middle" font-family="monospace" font-size="14">h3</text><rect x="370.0" y="115.0" width="120" height="60" fill="none" stroke="black" stroke-width="1.5"/><text x="430.0" y="145.0" text-anchor="middle" dominant-baseline="middle" font-family="monospace" font-size="14">output</text></svg>