<svg xmlns="http://www.w3.org/2000/svg" width="804.0" height="270.0" viewBox="0 0 804.0 270.0"><rect width="100%" height="100%" fill="white"/><defs><marker id="arrow" viewBox="0 0 10 10" refX="9" refY="5" markerWidth="8" markerHeight="8" orient="auto-start-reverse"><path d="M 0 0 L 10 5 L 0 10 z" fill="black"/></marker></defs><rect x="424.0" y="28.0" width="152.0" height="198.0" fill="none" stroke="black" stroke-width="1" stroke-dasharray="4,3"/><text x="432.0" y="44.0" text-anchor="start" dominant-baseline="middle" font-family="monospace" font-size="12">api fleet</text><line x1="160.0" y1="103.5" x2="240.0" y2="121.5" stroke="black" stroke-width="1.5" marker-end="url(#arrow)"/><line x1="360.0" y1="121.5" x2="440.0" y2="103.5" stroke="black" stroke-width="1.5" marker-end="url(#arrow)"/><line x1="360.0" y1="148.5" x2="440.0" y2="166.5" stroke="black" stroke-width="1.5" marker-end="url(#arrow)"/><line x1="560.0" y1="87.32142857142857" x2="684.0" y2="81.78571428571429" stroke="black" stroke-width="1.5" marker-end="url(#arrow)"/><rect x="600.0" y="76.55357142857143" width="44.0" height="16" fill="white" stroke="none"/><text x="622.0" y="84.55357142857143" text-anchor="middle" dominant-baseline="middle" font-family="monospace" font-size="12">write</text><line x1="560.0" y1="153.21428571428572" x2="684.0" y2="97.85714285714286" stroke="black" stroke-width="1.5" marker-end="url(#arrow)"/><rect x="600.0" y="117.53571428571429" width="44.0" height="16" fill="white" stroke="none"/><text x="622.0" y="125.53571428571429" text-anchor="middle" dominant-baseline="middle" font-family="monospace" font-size="12">write</text><line x1="560.0" y1="116.78571428571428" x2="684.0" y2="172.14285714285714" stroke="black" stroke-width="1.5" marker-end="url(#arrow)"/><rect x="603.6" y="136.46428571428572" width="36.8" height="16" fill="white" stroke="none"/><text x="622.0" y="144.46428571428572" text-anchor="middle" dominant-baseline="middle" font-family="monospace" font-size="12">read</text><line x1="560.0" y1="182.67857142857142" x2="684.0" y2="188.21428571428572" stroke="black" stroke-width="1.5" marker-end="url(#arrow)"/><rect x="603.6" y="177.44642857142856" width="36.8" height="16" fill="white" stroke="none"/><text x="622.0" y="185.44642857142856" text-anchor="middle" dominant-baseline="middle" font-family="monospace" font-size="12">read</text><line x1="160.0" y1="166.5" x2="440.0" y2="103.5" stroke="black" stroke-width="1.5" stroke-dasharray="6,4" marker-end="url(#arrow)"/><rect x="40.0" y="60.0" width="120" height="60" fill="none" stroke="black" stroke-width="1.5"/><text x="100.0" y="90.0" text-anchor="middle" dominant-baseline="middle" font-family="monospace" font-size="14">user</text><rect x="240.0" y="105.0" width="120" height="60" fill="none" stroke="black" stroke-width="1.5"/><text x="300.0" y="135.0" text-anchor="middle" dominant-baseline="middle" font-family="monospace" font-size="14">load balancer</text><rect x="440.0" y="60.0" width="120" height="60" fill="none" stroke="black" stroke-width="1.5"/><text x="500.0" y="90.0" text-anchor="middle" dominant-baseline="middle" font-family="monospace" font-size="14">api</text><rect x="440.0" y="150.0" width="120" height="60" fill="none" stroke="black" stroke-width="1.5"/><text x="500.0" y="180.0" text-anchor="middle" dominant-baseline="middle" font-family="monospace" font-size="14">api</text><ellipse cx="724.0" cy="48.0" rx="40.0" ry="8" fill="none" stroke="black" stroke-width="1.5"/><line x1="684.0" y1="48.0" x2="684.0" y2="112.0" fill="none" stroke="black" stroke-width="1.5"/><line x1="764.0" y1="48.0" x2="764.0" y2="112.0" fill="none" stroke="black" stroke-width="1.5"/><path d="M 684.0 112.0 A 40.0 8 0 0 0 764.0 112.0" fill="none" stroke="black" stroke-width="1.5"/><text x="724.0" y="80.0" text-anchor="middle" dominant-baseline="middle" font-family="monospace" font-size="14">postgres</text><ellipse cx="724.0" cy="158.0" rx="40.0" ry="8" fill="none" stroke="black" stroke-width="1.5"/><line x1="684.0" y1="158.0" x2="684.0" y2="222.0" fill="none" stroke="black" stroke-width="1.5"/><line x1="764.0" y1="158.0" x2="764.0" y2="222.0" fill="none" stroke="black" stroke-width="1.5"/><path d="M 684.0 222.0 A 40.0 8 0 0 0 764.0 222.0" fill="none" stroke="black" stroke-width="1.5"/><text x="724.0" y="190.0" text-anchor="middle" dominant-baseline="middle" font-family="monospace" font-size="14">redis</text><path d="M 40.0 150.0 L 148.0 150.0 L 160.0 162.0 L 160.0 210.0 L 40.0 210.0 Z" fill="none" stroke="black" stroke-width="1.5"/><path d="M 148.0 150.0 L 148.0 162.0 L 160.0 162.0" fill="none" stroke="black" stroke-width="1.5"/><text x="100.0" y="180.0" text-anchor="middle" dominant-baseline="middle" font-family="monospace" font-size="13">horizontally scaled</text></svg>